# xmcd
# Copyright (C) 1995-1998 Ti Kan
#
# Track frame offsets:
#       150
#       19525
#       75492
#       94912
#       112005
#       136985
#       159952
#       180922
#       196775
#       247767
#
# Disc length: 3617 seconds
#
# Revision: 0
# Processed by: cddbd v1.5.2PL0 Copyright (c) Steve Scherf et al.
# Submitted via: CD-Import v1.0
#
DISCID=680e1f0a
DTITLE=Decemberists - The Crane Wife
DYEAR=2006
DGENRE=
TTITLE0=The Crane Wife 3
TTITLE1=The Island
TTITLE2=Yankee Bayonet (I Will Be Home Then)
TTITLE3=O Valencia!
TTITLE4=The Perfect Crime 2
TTITLE5=When The War Came
TTITLE6=Shankill Butchers
TTITLE7=Summersong
TTITLE8=The Crane Wife 1 and 2
TTITLE9=Sons and Daughters
EXTD=
EXTT0=
EXTT1=
EXTT2=
EXTT3=
EXTT4=
EXTT5=
EXTT6=
EXTT7=
EXTT8=
EXTT9=
PLAYORDER=
